<?xml version="1.0" encoding="UTF-8" standalone="no"?>
<!DOCTYPE svg PUBLIC "-//W3C//DTD SVG 1.1//EN" "http://www.w3.org/Graphics/SVG/1.1/DTD/svg11.dtd">
<svg width="456" height="456" viewBox="0 0 456 456" version="1.1" xmlns="http://www.w3.org/2000/svg" xmlns:xlink="http://www.w3.org/1999/xlink" xml:space="preserve" xmlns:serif="http://www.serif.com/" style="fill-rule:evenodd;clip-rule:evenodd;stroke-linejoin:round;stroke-miterlimit:2;">
    <path d="M122.824,176.535v102.93c-4.624,0-11.882,0.391-21.777,1.172v-1.758c5.013-1.367,8.56-4.297,10.645-8.789
				c2.017-4.297,3.027-13.216,3.027-26.758V203c0-8.267-1.01-14.29-3.027-18.066c-2.019-3.711-5.566-6.314-10.645-7.813v-1.758
				C109.509,176.015,116.77,176.405,122.824,176.535z M135.715,279.465h-5.957v-102.93c8.984-0.195,15.267-0.423,18.848-0.684
				c5.403-0.325,9.114-0.488,11.133-0.488c9.766,0,18.099,2.246,25,6.738c6.836,4.558,11.978,10.515,15.43,17.871
				c3.384,7.227,5.078,16.406,5.078,27.539c0,16.929-4.069,30.015-12.207,39.258c-8.203,9.245-19.304,13.867-33.301,13.867
				c-6.511,0-13.867-0.358-22.07-1.074C137.341,279.497,136.691,279.465,135.715,279.465z M139.426,185.617
				c-1.042,2.93-1.563,13.184-1.563,30.762v23.828c0,14.258,0.943,24.675,2.832,31.25c5.013,1.563,10.742,2.344,17.188,2.344
				c12.044,0,21.517-3.809,28.418-11.426c6.966-7.681,10.449-18.978,10.449-33.887c0-14.583-3.452-25.911-10.352-33.984
				c-6.901-8.072-17.058-12.109-30.469-12.109C148.962,182.395,143.462,183.469,139.426,185.617z M196.262,271.848
				c10.806-8.267,16.211-22.591,16.211-42.969c0-19.922-4.428-33.984-13.281-42.188c7.422,4.883,13.021,10.84,16.797,17.871
				c3.775,7.031,5.664,15.039,5.664,24.023C221.652,247.336,213.188,261.757,196.262,271.848z" style="fill:#ffffff;fill-rule:nonzero;stroke-width:0.838376" />
    <path d="M256.125,176.535v102.93c-4.623,0-11.882,0.391-21.777,1.172v-1.758
				c5.013-1.367,8.561-4.297,10.645-8.789c2.018-4.297,3.027-13.216,3.027-26.758V203c0-8.267-1.01-14.29-3.027-18.066
				c-2.019-3.711-5.566-6.314-10.645-7.813v-1.758C242.811,176.015,250.07,176.405,256.125,176.535z M269.016,279.465h-5.957
				v-102.93c8.984-0.195,15.267-0.423,18.848-0.684c5.403-0.325,9.114-0.488,11.133-0.488c9.766,0,18.099,2.246,25,6.738
				c6.836,4.558,11.979,10.515,15.43,17.871c3.385,7.227,5.078,16.406,5.078,27.539c0,16.929-4.069,30.015-12.207,39.258
				c-8.203,9.245-19.304,13.867-33.301,13.867c-6.511,0-13.867-0.358-22.07-1.074C270.643,279.497,269.992,279.465,269.016,279.465z
				 M272.727,185.617c-1.042,2.93-1.563,13.184-1.563,30.762v23.828c0,14.258,0.943,24.675,2.832,31.25
				c5.013,1.563,10.742,2.344,17.188,2.344c12.044,0,21.517-3.809,28.418-11.426c6.966-7.681,10.449-18.978,10.449-33.887
				c0-14.583-3.451-25.911-10.352-33.984c-6.901-8.072-17.058-12.109-30.469-12.109
				C282.264,182.395,276.763,183.469,272.727,185.617z M329.563,271.848c10.807-8.267,16.211-22.591,16.211-42.969
				c0-19.922-4.428-33.984-13.281-42.188c7.422,4.883,13.021,10.84,16.797,17.871c3.775,7.031,5.664,15.039,5.664,24.023
				C354.953,247.336,346.489,261.757,329.563,271.848z" style="fill:#ffffff;fill-rule:nonzero;stroke-width:0.838376" />
</svg>